# This file uses centimeters as units for non-parametric coordinates.

mtllib platform.mtl
g default
v 3.514165 0.000000 -1.141822
v 2.989327 0.000000 -2.171874
v 2.171873 0.000000 -2.989328
v 1.141821 0.000000 -3.514165
v -0.000000 0.000000 -3.695012
v -1.141822 0.000000 -3.514165
v -2.171873 0.000000 -2.989327
v -2.989326 0.000000 -2.171873
v -3.514164 0.000000 -1.141821
v -3.695011 0.000000 -0.000000
v -3.514164 0.000000 1.141821
v -2.989326 0.000000 2.171872
v -2.171873 0.000000 2.989326
v -1.141821 0.000000 3.514163
v -0.000000 0.000000 3.695010
v 1.141821 0.000000 3.514163
v 2.171872 0.000000 2.989326
v 2.989325 0.000000 2.171872
v 3.514163 0.000000 1.141821
v 3.695009 0.000000 -0.000000
v 3.514165 0.200000 -1.141822
v 2.989327 0.200000 -2.171874
v 2.171873 0.200000 -2.989328
v 1.141821 0.200000 -3.514165
v -0.000000 0.200000 -3.695012
v -1.141822 0.200000 -3.514165
v -2.171873 0.200000 -2.989327
v -2.989326 0.200000 -2.171873
v -3.514164 0.200000 -1.141821
v -3.695011 0.200000 -0.000000
v -3.514164 0.200000 1.141821
v -2.989326 0.200000 2.171872
v -2.171873 0.200000 2.989326
v -1.141821 0.200000 3.514163
v -0.000000 0.200000 3.695010
v 1.141821 0.200000 3.514163
v 2.171872 0.200000 2.989326
v 2.989325 0.200000 2.171872
v 3.514163 0.200000 1.141821
v 3.695009 0.200000 -0.000000
v 5.226238 0.400000 -1.698108
v 4.445704 0.400000 -3.229993
v 3.229993 0.400000 -4.445704
v 1.698107 0.400000 -5.226237
v 0.000000 0.400000 -5.495191
v -1.698107 0.400000 -5.226237
v -3.229992 0.400000 -4.445703
v -4.445702 0.400000 -3.229991
v -5.226236 0.400000 -1.698107
v -5.495190 0.400000 0.000000
v -5.226236 0.400000 1.698107
v -4.445702 0.400000 3.229991
v -3.229991 0.400000 4.445702
v -1.698107 0.400000 5.226235
v -0.000000 0.400000 5.495189
v 1.698106 0.400000 5.226235
v 3.229990 0.400000 4.445701
v 4.445701 0.400000 3.229991
v 5.226235 0.400000 1.698107
v 5.495188 0.400000 0.000000
v 5.226238 0.600000 -1.698108
v 4.445704 0.600000 -3.229993
v 3.229993 0.600000 -4.445704
v 1.698107 0.600000 -5.226237
v -0.000000 0.600000 -5.495191
v -1.698107 0.600000 -5.226237
v -3.229992 0.600000 -4.445703
v -4.445702 0.600000 -3.229992
v -5.226236 0.600000 -1.698108
v -5.495190 0.600000 -0.000001
v -5.226236 0.600000 1.698107
v -4.445702 0.600000 3.229991
v -3.229991 0.600000 4.445701
v -1.698107 0.600000 5.226235
v -0.000000 0.600000 5.495188
v 1.698106 0.600000 5.226235
v 3.229990 0.600000 4.445701
v 4.445701 0.600000 3.229990
v 5.226234 0.600000 1.698107
v 5.495188 0.600000 -0.000000
v 0.000000 0.000000 0.000000
v 0.000000 0.600000 0.000000
vt 0.946530 0.113012
vt 0.946530 0.066511
vt 0.955559 0.066511
vt 0.955559 0.113012
vt 0.946530 0.029608
vt 0.955559 0.029608
vt 0.946530 0.164559
vt 0.955559 0.164559
vt 0.946530 0.216105
vt 0.955559 0.216105
vt 0.946530 0.262606
vt 0.955559 0.262606
vt 0.946530 0.299509
vt 0.955559 0.299509
vt 0.946530 0.728604
vt 0.946530 0.682104
vt 0.955559 0.682104
vt 0.955559 0.728604
vt 0.946530 0.630557
vt 0.955559 0.630557
vt 0.946530 0.765508
vt 0.955559 0.765508
vt 0.946530 0.579010
vt 0.955559 0.579010
vt 0.946530 0.532509
vt 0.955559 0.532509
vt 0.946530 0.495605
vt 0.955559 0.495605
vt 0.417080 0.625894
vt 0.417080 0.556738
vt 0.426109 0.556738
vt 0.426109 0.625894
vt 0.417080 0.501856
vt 0.426109 0.501856
vt 0.417080 0.702554
vt 0.426109 0.702554
vt 0.417080 0.779213
vt 0.426109 0.779213
vt 0.417080 0.848369
vt 0.426109 0.848369
vt 0.417080 0.903251
vt 0.426109 0.903251
vt 0.402347 0.848369
vt 0.402347 0.779213
vt 0.411375 0.779213
vt 0.411375 0.848369
vt 0.402347 0.702554
vt 0.411375 0.702554
vt 0.402347 0.903251
vt 0.411375 0.903251
vt 0.402347 0.625894
vt 0.411375 0.625894
vt 0.402347 0.556738
vt 0.411375 0.556738
vt 0.402347 0.501856
vt 0.411375 0.501856
vt 0.408573 0.198522
vt 0.384879 0.152021
vt 0.450626 0.104253
vt 0.485863 0.173408
vt 0.347976 0.115117
vt 0.395744 0.049370
vt 0.416737 0.250068
vt 0.498005 0.250068
vt 0.301475 0.091424
vt 0.326588 0.014134
vt 0.408573 0.301615
vt 0.485863 0.326728
vt 0.249928 0.083260
vt 0.249928 0.001992
vt 0.384879 0.348116
vt 0.450626 0.395884
vt 0.198382 0.091424
vt 0.173269 0.014134
vt 0.347976 0.385019
vt 0.395744 0.450766
vt 0.151881 0.115117
vt 0.104113 0.049370
vt 0.301475 0.408713
vt 0.326588 0.486003
vt 0.114978 0.152021
vt 0.049231 0.104253
vt 0.249928 0.416877
vt 0.249928 0.498144
vt 0.091284 0.198522
vt 0.013994 0.173408
vt 0.198382 0.408713
vt 0.173269 0.486003
vt 0.083120 0.250068
vt 0.001852 0.250068
vt 0.151881 0.385019
vt 0.104113 0.450766
vt 0.091284 0.301615
vt 0.013994 0.326728
vt 0.114978 0.348116
vt 0.049231 0.395884
vt 0.364784 0.570617
vt 0.388478 0.617118
vt 0.229833 0.668664
vt 0.396642 0.668664
vt 0.327881 0.533713
vt 0.388478 0.720211
vt 0.281380 0.510020
vt 0.364784 0.766712
vt 0.229833 0.501856
vt 0.327881 0.803615
vt 0.178287 0.510020
vt 0.281380 0.827308
vt 0.131786 0.533713
vt 0.229833 0.835473
vt 0.094883 0.570617
vt 0.178287 0.827309
vt 0.071189 0.617118
vt 0.131786 0.803615
vt 0.063025 0.668664
vt 0.094883 0.766712
vt 0.071189 0.720211
vt 0.915824 0.826592
vt 0.880588 0.895748
vt 0.679890 0.749932
vt 0.825706 0.950630
vt 0.927966 0.749932
vt 0.756550 0.985866
vt 0.915824 0.673272
vt 0.679890 0.998008
vt 0.880588 0.604116
vt 0.603230 0.985866
vt 0.825705 0.549234
vt 0.534074 0.950630
vt 0.756550 0.513997
vt 0.479192 0.895747
vt 0.679890 0.501856
vt 0.443955 0.826592
vt 0.603230 0.513997
vt 0.431814 0.749932
vt 0.534074 0.549234
vt 0.443955 0.673272
vt 0.479192 0.604116
vt 0.946530 0.961603
vt 0.946530 0.915102
vt 0.955559 0.915102
vt 0.955559 0.961603
vt 0.946530 0.863556
vt 0.955559 0.863556
vt 0.946530 0.812009
vt 0.955559 0.812009
vt 0.946530 0.449104
vt 0.955559 0.449104
vt 0.946530 0.397557
vt 0.955559 0.397557
vt 0.946530 0.346010
vt 0.955559 0.346010
vt 0.057320 0.501856
vt 0.057320 0.571011
vt 0.048292 0.571012
vt 0.048292 0.501856
vt 0.057320 0.647671
vt 0.048292 0.647671
vt 0.057320 0.724331
vt 0.048292 0.724331
vt 0.057320 0.793487
vt 0.048292 0.793487
vt 0.033558 0.793487
vt 0.033558 0.724331
vt 0.042587 0.724331
vt 0.042587 0.793487
vt 0.033558 0.647671
vt 0.042587 0.647671
vt 0.033558 0.571011
vt 0.042587 0.571011
vt 0.033558 0.501856
vt 0.042587 0.501856
vn 0.951057 0.000000 -0.309016
vn 0.809017 0.000000 -0.587785
vn 0.152822 -0.981997 -0.111032
vn 0.179653 -0.981997 -0.058373
vn 0.587785 0.000000 -0.809017
vn 0.111032 -0.981997 -0.152822
vn 0.309017 0.000000 -0.951057
vn 0.058373 -0.981997 -0.179653
vn -0.000000 0.000000 -1.000000
vn -0.000000 -0.981997 -0.188899
vn -0.309017 0.000000 -0.951057
vn -0.058373 -0.981997 -0.179653
vn -0.587785 0.000000 -0.809017
vn -0.111032 -0.981997 -0.152822
vn -0.809017 0.000000 -0.587785
vn -0.152822 -0.981997 -0.111032
vn -0.951057 0.000000 -0.309017
vn -0.179653 -0.981997 -0.058373
vn -1.000000 0.000000 0.000000
vn -0.188899 -0.981997 -0.000000
vn -0.951056 0.000000 0.309017
vn -0.179653 -0.981997 0.058373
vn -0.809017 0.000000 0.587785
vn -0.152822 -0.981997 0.111032
vn -0.587785 0.000000 0.809017
vn -0.111032 -0.981997 0.152822
vn -0.309017 0.000000 0.951057
vn -0.058373 -0.981997 0.179653
vn 0.000000 0.000000 1.000000
vn 0.000000 -0.981997 0.188899
vn 0.309017 0.000000 0.951056
vn 0.058373 -0.981997 0.179653
vn 0.587785 0.000000 0.809017
vn 0.111032 -0.981997 0.152822
vn 0.809017 0.000000 0.587785
vn 0.152822 -0.981997 0.111032
vn 0.951057 0.000000 0.309017
vn 0.179653 -0.981997 0.058373
vn 1.000000 0.000000 0.000001
vn 0.188899 -0.981997 0.000000
vn 0.202566 -0.968146 -0.147173
vn 0.238131 -0.968146 -0.077373
vn 0.147173 -0.968146 -0.202566
vn 0.077373 -0.968146 -0.238131
vn 0.000000 -0.968146 -0.250386
vn -0.077373 -0.968146 -0.238131
vn -0.147173 -0.968146 -0.202566
vn -0.202566 -0.968146 -0.147173
vn -0.238131 -0.968146 -0.077373
vn -0.250386 -0.968146 0.000000
vn -0.238131 -0.968146 0.077373
vn -0.202566 -0.968146 0.147173
vn -0.147173 -0.968146 0.202566
vn -0.077373 -0.968146 0.238131
vn 0.000000 -0.968146 0.250386
vn 0.077373 -0.968146 0.238131
vn 0.147173 -0.968146 0.202566
vn 0.202566 -0.968146 0.147173
vn 0.238131 -0.968146 0.077373
vn 0.250386 -0.968146 0.000000
vn 0.809017 0.000000 -0.587785
vn 0.951057 0.000001 -0.309016
vn 0.587785 0.000000 -0.809017
vn 0.309017 0.000001 -0.951057
vn -0.000000 0.000001 -1.000000
vn -0.309017 -0.000000 -0.951057
vn -0.587785 0.000000 -0.809017
vn -0.809017 -0.000000 -0.587785
vn -0.951056 -0.000002 -0.309017
vn -1.000000 -0.000000 -0.000000
vn -0.951057 0.000002 0.309017
vn -0.809017 0.000001 0.587785
vn -0.587785 0.000002 0.809017
vn -0.309017 0.000002 0.951057
vn -0.000000 0.000002 1.000000
vn 0.309017 0.000001 0.951057
vn 0.587785 0.000001 0.809017
vn 0.809017 0.000002 0.587785
vn 0.951057 0.000001 0.309017
vn 1.000000 0.000001 0.000001
vn 0.000000 -1.000000 0.000000
vn 0.000000 -1.000000 0.000000
vn 0.000000 -1.000000 0.000000
vn 0.000000 -1.000000 0.000000
vn 0.000000 -1.000000 0.000000
vn 0.000000 -1.000000 0.000000
vn 0.000000 -1.000000 0.000000
vn 0.000000 -1.000000 0.000000
vn 0.000000 -1.000000 0.000000
vn 0.000000 -1.000000 0.000000
vn 0.000000 -1.000000 0.000000
vn 0.000000 -1.000000 0.000000
vn 0.000000 -1.000000 0.000000
vn 0.000000 -1.000000 0.000000
vn 0.000000 -1.000000 0.000000
vn 0.000000 -1.000000 0.000000
vn 0.000000 -1.000000 0.000000
vn 0.000000 -1.000000 0.000000
vn 0.000000 -1.000000 0.000000
vn 0.000000 -1.000000 0.000000
vn 0.000000 -1.000000 0.000000
vn 0.000000 1.000000 0.000000
vn 0.000000 1.000000 0.000000
vn 0.000000 1.000000 0.000000
vn 0.000000 1.000000 -0.000000
vn 0.000000 1.000000 -0.000000
vn 0.000000 1.000000 0.000000
vn 0.000000 1.000000 0.000000
vn 0.000000 1.000000 0.000000
vn 0.000000 1.000000 0.000000
vn 0.000000 1.000000 0.000000
vn 0.000000 1.000000 0.000000
vn 0.000000 1.000000 0.000000
vn 0.000000 1.000000 0.000000
vn 0.000000 1.000000 0.000000
vn 0.000000 1.000000 0.000000
vn 0.000000 1.000000 -0.000000
vn 0.000000 1.000000 -0.000000
vn 0.000000 1.000000 -0.000000
vn 0.000000 1.000000 -0.000000
vn 0.000000 1.000000 0.000000
vn 0.000000 1.000000 0.000000
s 1
g pCylinder1
usemtl lambert21SG
f 1/1/1 2/2/2 22/3/3 21/4/4
f 2/2/2 3/5/5 23/6/6 22/3/3
f 3/139/5 4/140/7 24/141/8 23/142/6
f 4/140/7 5/143/9 25/144/10 24/141/8
f 5/143/9 6/145/11 26/146/12 25/144/10
f 6/145/11 7/21/13 27/22/14 26/146/12
f 7/21/13 8/15/15 28/18/16 27/22/14
f 8/15/15 9/16/17 29/17/18 28/18/16
f 9/16/17 10/19/19 30/20/20 29/17/18
f 10/19/19 11/23/21 31/24/22 30/20/20
f 11/23/21 12/25/23 32/26/24 31/24/22
f 12/25/23 13/27/25 33/28/26 32/26/24
f 13/27/25 14/147/27 34/148/28 33/28/26
f 14/147/27 15/149/29 35/150/30 34/148/28
f 15/149/29 16/151/31 36/152/32 35/150/30
f 16/151/31 17/13/33 37/14/34 36/152/32
f 17/13/33 18/11/35 38/12/36 37/14/34
f 18/11/35 19/9/37 39/10/38 38/12/36
f 19/9/37 20/7/39 40/8/40 39/10/38
f 20/7/39 1/1/1 21/4/4 40/8/40
f 21/57/4 22/58/3 42/59/41 41/60/42
f 22/58/3 23/61/6 43/62/43 42/59/41
f 23/61/6 24/65/8 44/66/44 43/62/43
f 24/65/8 25/69/10 45/70/45 44/66/44
f 25/69/10 26/73/12 46/74/46 45/70/45
f 26/73/12 27/77/14 47/78/47 46/74/46
f 27/77/14 28/81/16 48/82/48 47/78/47
f 28/81/16 29/85/18 49/86/49 48/82/48
f 29/85/18 30/89/20 50/90/50 49/86/49
f 30/89/20 31/93/22 51/94/51 50/90/50
f 31/93/22 32/95/24 52/96/52 51/94/51
f 32/95/24 33/91/26 53/92/53 52/96/52
f 33/91/26 34/87/28 54/88/54 53/92/53
f 34/87/28 35/83/30 55/84/55 54/88/54
f 35/83/30 36/79/32 56/80/56 55/84/55
f 36/79/32 37/75/34 57/76/57 56/80/56
f 37/75/34 38/71/36 58/72/58 57/76/57
f 38/71/36 39/67/38 59/68/59 58/72/58
f 39/67/38 40/63/40 60/64/60 59/68/59
f 40/63/40 21/57/4 41/60/42 60/64/60
f 41/29/42 42/30/41 62/31/61 61/32/62
f 42/30/41 43/33/43 63/34/63 62/31/61
f 43/153/43 44/154/44 64/155/64 63/156/63
f 44/154/44 45/157/45 65/158/65 64/155/64
f 45/157/45 46/159/46 66/160/66 65/158/65
f 46/159/46 47/161/47 67/162/67 66/160/66
f 47/49/47 48/43/48 68/46/68 67/50/67
f 48/43/48 49/44/49 69/45/69 68/46/68
f 49/44/49 50/47/50 70/48/70 69/45/69
f 50/47/50 51/51/51 71/52/71 70/48/70
f 51/51/51 52/53/52 72/54/72 71/52/71
f 52/53/52 53/55/53 73/56/73 72/54/72
f 53/163/53 54/164/54 74/165/74 73/166/73
f 54/164/54 55/167/55 75/168/75 74/165/74
f 55/167/55 56/169/56 76/170/76 75/168/75
f 56/169/56 57/171/57 77/172/77 76/170/76
f 57/41/57 58/39/58 78/40/78 77/42/77
f 58/39/58 59/37/59 79/38/79 78/40/78
f 59/37/59 60/35/60 80/36/80 79/38/79
f 60/35/60 41/29/42 61/32/62 80/36/80
s 2
f 2/97/81 1/98/82 81/99/83
f 3/101/84 2/97/81 81/99/83
f 4/103/85 3/101/84 81/99/83
f 5/105/86 4/103/85 81/99/83
f 6/107/87 5/105/86 81/99/83
f 7/109/88 6/107/87 81/99/83
f 8/111/89 7/109/88 81/99/83
f 9/113/90 8/111/89 81/99/83
f 10/115/91 9/113/90 81/99/83
f 11/117/92 10/115/91 81/99/83
f 12/116/93 11/117/92 81/99/83
f 13/114/94 12/116/93 81/99/83
f 14/112/95 13/114/94 81/99/83
f 15/110/96 14/112/95 81/99/83
f 16/108/97 15/110/96 81/99/83
f 17/106/98 16/108/97 81/99/83
f 18/104/99 17/106/98 81/99/83
f 19/102/100 18/104/99 81/99/83
f 20/100/101 19/102/100 81/99/83
f 1/98/82 20/100/101 81/99/83
s 3
f 61/118/102 62/119/103 82/120/104
f 62/119/103 63/121/105 82/120/104
f 63/121/105 64/123/106 82/120/104
f 64/123/106 65/125/107 82/120/104
f 65/125/107 66/127/108 82/120/104
f 66/127/108 67/129/109 82/120/104
f 67/129/109 68/131/110 82/120/104
f 68/131/110 69/133/111 82/120/104
f 69/133/111 70/135/112 82/120/104
f 70/135/112 71/137/113 82/120/104
f 71/137/113 72/138/114 82/120/104
f 72/138/114 73/136/115 82/120/104
f 73/136/115 74/134/116 82/120/104
f 74/134/116 75/132/117 82/120/104
f 75/132/117 76/130/118 82/120/104
f 76/130/118 77/128/119 82/120/104
f 77/128/119 78/126/120 82/120/104
f 78/126/120 79/124/121 82/120/104
f 79/124/121 80/122/122 82/120/104
f 80/122/122 61/118/102 82/120/104
