# This file uses centimeters as units for non-parametric coordinates.

v 0.191459 -1.091067 0.089331
v 0.191459 -1.148940 0.153051
v 0.156520 -0.867063 0.080420
v 0.163584 -1.162233 0.068658
v -0.168858 -1.091067 0.089331
v -0.168858 -1.148940 0.153051
v -0.133919 -0.867063 0.080420
v -0.140983 -1.162233 0.068658
v 0.156520 -0.827943 -0.203761
v -0.133919 -0.827943 -0.203761
v 0.163584 -1.140961 -0.259036
v -0.140983 -1.140961 -0.259036
v 0.180031 -1.131010 0.046787
v -0.157430 -1.131010 0.046787
v -0.184041 -1.051239 -0.282458
v 0.206642 -1.051239 -0.282458
v -0.182404 -0.948851 0.034148
v 0.205004 -0.948851 0.034148
v -0.182404 -0.956787 -0.273752
v 0.205004 -0.956787 -0.273752
v 0.191459 -1.007796 0.072834
v -0.168858 -1.007796 0.072834
v 0.191459 -0.948016 0.095060
v -0.168858 -0.948016 0.095060
v 0.191459 -0.908638 0.154130
v -0.168858 -0.908638 0.154130
v 0.191459 -1.032772 0.468424
v -0.168858 -1.032772 0.468424
v 0.191459 -1.117387 0.474111
v -0.168858 -1.117387 0.474111
v 0.191459 -1.154427 0.411105
v -0.168858 -1.154427 0.411105
v -0.090032 -1.166995 0.137705
v 0.112632 -1.166995 0.137705
v 0.112632 -1.099189 0.063578
v -0.090032 -1.099189 0.063578
v 0.112632 -1.002748 0.044472
v -0.090032 -1.002748 0.044472
v 0.112632 -0.932390 0.067273
v -0.090032 -0.932390 0.067273
v 0.112632 -0.887737 0.132306
v -0.090032 -0.887737 0.132306
v 0.112632 -1.037456 0.505005
v -0.090032 -1.037456 0.505005
v 0.112632 -1.131195 0.512077
v -0.090032 -1.131195 0.512077
v 0.112632 -1.173351 0.436571
v -0.090032 -1.173351 0.436571
v -0.067575 -0.035273 0.090547
v -0.118010 -0.035273 0.046069
v -0.136470 -0.035273 -0.014690
v -0.118010 -0.035273 -0.075449
v -0.067575 -0.035273 -0.119928
v 0.001321 -0.035273 -0.136208
v 0.070217 -0.035273 -0.119928
v 0.120652 -0.035273 -0.075449
v 0.139112 -0.035273 -0.014690
v 0.120652 -0.035273 0.046069
v 0.070217 -0.035273 0.090547
v 0.001321 -0.035273 0.106828
v 0.159160 0.018918 0.092542
v 0.159160 -0.008370 -0.014690
v 0.159160 0.018919 -0.121923
v 0.003245 0.018918 0.092542
v 0.003245 -0.008370 -0.014690
v 0.003245 0.018919 -0.121923
vt 0.957525 0.315621
vt 0.975170 0.378038
vt 0.966045 0.397360
vt 0.925560 0.123989
vt 0.928437 0.108242
vt 0.935358 0.109560
vt 0.567050 0.762266
vt 0.566866 0.785419
vt 0.561726 0.785599
vt 0.917140 0.362807
vt 0.919478 0.354861
vt 0.944859 0.411254
vt 0.576194 0.682153
vt 0.558183 0.682153
vt 0.558183 0.663918
vt 0.560323 0.762398
vt 0.555900 0.785216
vt 0.940100 0.411435
vt 0.949081 0.483116
vt 0.891620 0.461038
vt 0.963575 0.484104
vt 0.570013 0.803214
vt 0.575589 0.785577
vt 0.977162 0.474591
vt 0.556828 0.804990
vt 0.954829 0.382925
vt 0.943592 0.345806
vt 0.577534 0.766139
vt 0.994106 0.444610
vt 0.938560 0.123989
vt 0.941513 0.102602
vt 0.947913 0.111633
vt 0.943773 0.092839
vt 0.941610 0.082350
vt 0.948547 0.073441
vt 0.917877 0.058068
vt 0.920313 0.068420
vt 0.915457 0.072322
vt 0.915384 0.082074
vt 0.905578 0.079640
vt 0.938792 0.372605
vt 0.940158 0.370481
vt 0.942210 0.372390
vt 0.928651 0.363086
vt 0.939726 0.367106
vt 0.941871 0.378633
vt 0.943593 0.399496
vt 0.940863 0.364044
vt 0.944914 0.363291
vt 0.942169 0.365005
vt 0.947189 0.372495
vt 0.944121 0.367253
vt 0.945473 0.372131
vt 0.942431 0.372483
vt 0.942336 0.372577
vt 0.942303 0.372436
vt 0.911624 0.024941
vt 0.910835 0.064247
vt 0.942232 0.372624
vt 0.891620 0.042299
vt 0.942380 0.372980
vt 0.942927 0.367592
vt 0.942369 0.372326
vt 0.953706 0.037055
vt 0.946228 0.266653
vt 0.941656 0.291321
vt 0.505580 0.718518
vt 0.557905 0.714151
vt 0.558730 0.718518
vt 0.505777 0.700509
vt 0.556467 0.688980
vt 0.556169 0.693414
vt 0.554394 0.805179
vt 0.546193 0.754677
vt 0.550172 0.754932
vt 0.536424 0.806386
vt 0.542214 0.754431
vt 0.556044 0.697857
vt 0.556218 0.702076
vt 0.556652 0.706039
vt 0.557196 0.709988
vt 0.538013 0.754017
vt 0.959306 0.269193
vt 0.954164 0.273631
vt 0.957236 0.275912
vt 0.960249 0.278922
vt 0.963329 0.286677
vt 0.959337 0.284706
vt 0.955195 0.308452
vt 0.950897 0.275626
vt 0.948994 0.279951
vt 0.519598 0.722493
vt 0.520757 0.718679
vt 0.520757 0.726308
vt 0.993148 0.169282
vt 0.989991 0.150854
vt 0.993148 0.141785
vt 0.957981 0.290176
vt 0.955221 0.292994
vt 0.951188 0.292432
vt 0.518295 0.804428
vt 0.533595 0.753527
vt 0.554394 0.754962
vt 0.943021 0.315621
vt 0.576194 0.663918
vt 0.554539 0.765587
vt 0.576976 0.805091
vt 0.554539 0.806386
vt 0.945799 0.374729
vt 0.901090 0.032667
vt 0.958921 0.279947
vt 0.989786 0.169282
vt 0.985279 0.162233
vt 0.989786 0.135922
vt 0.506696 0.682297
vn 0.000000 -0.492412 0.870362
vn 0.000000 -0.492412 0.870362
vn 0.000000 -0.492412 0.870362
vn -0.287746 -0.708946 -0.643893
vn -0.287746 -0.708946 -0.643893
vn -0.287746 -0.708946 -0.643893
vn 0.000000 0.091784 -0.995779
vn 0.000000 0.091784 -0.995779
vn 0.000000 0.091784 -0.995779
vn 0.000000 0.573724 0.819049
vn 0.000000 0.573724 0.819049
vn 0.000000 0.573724 0.819049
vn 0.000000 0.990658 0.136372
vn 0.000000 0.990658 0.136372
vn 0.000000 0.990658 0.136372
vn 0.000000 -0.252588 -0.967574
vn 0.000000 -0.252588 -0.967574
vn 0.000000 -0.252588 -0.967574
vn 0.000000 -0.997900 -0.064778
vn 0.000000 -0.997900 -0.064778
vn 0.000000 -0.997900 -0.064778
vn -0.897548 -0.439607 -0.033965
vn -0.897548 -0.439607 -0.033965
vn -0.897548 -0.439607 -0.033965
vn 0.934233 0.356544 -0.009190
vn 0.934233 0.356544 -0.009190
vn 0.934233 0.356544 -0.009190
vn -0.999849 0.017370 -0.000448
vn -0.999849 0.017370 -0.000448
vn -0.999849 0.017370 -0.000448
vn 0.897548 -0.439607 -0.033965
vn 0.897548 -0.439607 -0.033965
vn 0.897548 -0.439607 -0.033965
vn 0.000000 0.188127 0.982145
vn 0.000000 0.188127 0.982145
vn 0.000000 0.188127 0.982145
vn 0.000000 0.477340 -0.878719
vn 0.000000 0.477340 -0.878719
vn 0.000000 0.477340 -0.878719
vn 0.999849 0.017381 -0.000448
vn 0.999849 0.017381 -0.000448
vn 0.999849 0.017381 -0.000448
vn -0.934231 0.356551 -0.009190
vn -0.934231 0.356551 -0.009190
vn -0.934231 0.356551 -0.009190
vn -0.322329 -0.183963 -0.928581
vn -0.322329 -0.183963 -0.928581
vn -0.322329 -0.183963 -0.928581
vn -0.338355 0.327936 -0.882028
vn -0.338355 0.327936 -0.882028
vn -0.338355 0.327936 -0.882028
vn -0.350462 0.779296 -0.519494
vn -0.350462 0.779296 -0.519494
vn -0.350462 0.779296 -0.519494
vn -0.417187 0.060945 0.906775
vn -0.417187 0.060945 0.906775
vn -0.417187 0.060945 0.906775
vn -0.347576 -0.808314 0.475204
vn -0.347576 -0.808314 0.475204
vn -0.347576 -0.808314 0.475204
vn 0.227056 -0.973662 -0.020706
vn 0.227056 -0.973662 -0.020706
vn 0.227056 -0.973662 -0.020706
vn 0.284298 -0.707415 -0.647101
vn 0.284298 -0.707415 -0.647101
vn 0.284298 -0.707415 -0.647101
vn 0.000000 -0.737862 -0.674952
vn 0.000000 -0.737862 -0.674952
vn 0.000000 -0.737862 -0.674952
vn 0.322325 -0.183964 -0.928582
vn 0.322325 -0.183964 -0.928582
vn 0.322325 -0.183964 -0.928582
vn 0.318613 0.184208 0.929814
vn 0.318613 0.184208 0.929814
vn 0.318613 0.184208 0.929814
vn 0.368543 0.286584 -0.884334
vn 0.368543 0.286584 -0.884334
vn 0.368543 0.286584 -0.884334
vn 0.000000 0.308284 -0.951294
vn 0.000000 0.308284 -0.951294
vn 0.000000 0.308284 -0.951294
vn 0.341171 0.774923 -0.532069
vn 0.341171 0.774923 -0.532069
vn 0.341171 0.774923 -0.532069
vn 0.000000 0.824385 -0.566030
vn 0.000000 0.824385 -0.566030
vn 0.000000 0.824385 -0.566030
vn 0.423204 0.068161 0.903467
vn 0.423204 0.068161 0.903467
vn 0.423204 0.068161 0.903467
vn 0.000000 0.075230 0.997166
vn 0.000000 0.075230 0.997166
vn 0.000000 0.075230 0.997166
vn 0.361514 -0.814076 0.454520
vn 0.361514 -0.814076 0.454520
vn 0.361514 -0.814076 0.454520
vn 0.000000 -0.873129 0.487490
vn 0.000000 -0.873129 0.487490
vn 0.000000 -0.873129 0.487490
vn -0.227060 -0.973661 -0.020707
vn -0.227060 -0.973661 -0.020707
vn -0.227060 -0.973661 -0.020707
vn 0.000000 -0.999774 -0.021262
vn 0.000000 -0.999774 -0.021262
vn 0.000000 -0.999774 -0.021262
vn -1.000000 0.000000 0.000000
vn -1.000000 0.000000 0.000000
vn -1.000000 0.000000 0.000000
vn -1.000000 0.000000 0.000000
vn -1.000000 0.000000 0.000000
vn -1.000000 0.000000 0.000000
vn -1.000000 0.000003 0.000000
vn -1.000000 0.000003 0.000000
vn -1.000000 0.000003 0.000000
vn -1.000000 -0.000001 0.000000
vn -1.000000 -0.000001 0.000000
vn -1.000000 -0.000001 0.000000
vn -1.000000 0.000000 0.000000
vn -1.000000 0.000000 0.000000
vn -1.000000 0.000000 0.000000
vn 1.000000 -0.000000 0.000000
vn 1.000000 -0.000000 0.000000
vn 1.000000 -0.000000 0.000000
vn 1.000000 -0.000000 0.000000
vn 1.000000 -0.000000 0.000000
vn 1.000000 -0.000000 0.000000
vn 0.000000 -0.466685 0.884424
vn 0.000000 -0.466685 0.884424
vn 0.000000 -0.466685 0.884424
vn -0.318617 0.184208 0.929812
vn -0.318617 0.184208 0.929812
vn -0.318617 0.184208 0.929812
vn -0.117029 0.921550 0.370202
vn -0.117029 0.921550 0.370202
vn -0.117029 0.921550 0.370202
vn 0.117027 0.921551 0.370201
vn 0.117027 0.921551 0.370201
vn 0.117027 0.921551 0.370201
vn 0.000000 0.927927 0.372763
vn 0.000000 0.927927 0.372763
vn 0.000000 0.927927 0.372763
vn -1.000000 -0.000000 0.000000
vn -1.000000 -0.000000 0.000000
vn -1.000000 -0.000000 0.000000
vn 1.000000 0.000000 0.000000
vn 1.000000 0.000000 0.000000
vn 1.000000 0.000000 0.000000
vn 1.000000 0.000000 0.000000
vn 1.000000 0.000000 0.000000
vn 1.000000 0.000000 0.000000
vn 1.000000 0.000000 0.000000
vn 1.000000 0.000000 0.000000
vn 1.000000 0.000000 0.000000
vn 1.000000 0.000000 0.000000
vn 1.000000 0.000000 0.000000
vn 1.000000 0.000000 0.000000
vn 0.229962 0.012012 0.973126
vn 0.229962 0.012012 0.973126
vn 0.229962 0.012012 0.973126
vn -0.229800 0.037885 -0.972500
vn -0.229800 0.037885 -0.972500
vn -0.229800 0.037885 -0.972500
vn -0.954720 0.066115 -0.290066
vn -0.954720 0.066115 -0.290066
vn -0.954720 0.066115 -0.290066
vn -0.999812 0.019232 0.002647
vn -0.999812 0.019232 0.002647
vn -0.999812 0.019232 0.002647
vn 0.228105 0.126929 -0.965328
vn 0.228105 0.126929 -0.965328
vn 0.228105 0.126929 -0.965328
vn 0.952932 0.089986 -0.289523
vn 0.952932 0.089986 -0.289523
vn 0.952932 0.089986 -0.289523
vn 0.653987 0.149631 -0.741560
vn 0.653987 0.149631 -0.741560
vn 0.653987 0.149631 -0.741560
vn 0.660258 0.059390 0.748687
vn 0.660258 0.059390 0.748687
vn 0.660258 0.059390 0.748687
vn -0.660797 0.043583 0.749298
vn -0.660797 0.043583 0.749298
vn -0.660797 0.043583 0.749298
vn 0.000000 -0.036789 -0.999323
vn 0.000000 -0.036789 -0.999323
vn 0.000000 -0.036789 -0.999323
vn 0.442017 -0.743916 -0.501209
vn 0.442017 -0.743916 -0.501209
vn 0.442017 -0.743916 -0.501209
vn 0.729382 -0.662976 -0.168716
vn 0.729382 -0.662975 -0.168716
vn 0.729382 -0.662976 -0.168716
vn 0.729379 -0.662980 0.168713
vn 0.729379 -0.662980 0.168713
vn 0.729379 -0.662980 0.168713
vn 0.223184 0.241046 -0.944503
vn 0.223184 0.241046 -0.944503
vn 0.223184 0.241046 -0.944503
vn -0.222308 0.255886 -0.940798
vn -0.222308 0.255886 -0.940798
vn -0.222308 0.255886 -0.940798
vn 0.000000 1.000000 0.000000
vn 0.000000 1.000000 0.000000
vn 0.000000 1.000000 0.000000
vn 0.000000 1.000000 0.000000
vn 0.000000 1.000000 0.000000
vn 0.000000 1.000000 0.000000
vn 0.442011 -0.743918 0.501211
vn 0.442011 -0.743918 0.501211
vn 0.442011 -0.743918 0.501211
vn 0.000000 -0.036789 0.999323
vn 0.000000 -0.036789 0.999323
vn 0.000000 -0.036789 0.999323
vn 0.223196 0.241066 0.944495
vn 0.223196 0.241066 0.944495
vn 0.223196 0.241066 0.944495
vn -0.222319 0.255906 0.940790
vn -0.222319 0.255906 0.940790
vn -0.222319 0.255906 0.940790
vn -0.592033 0.781021 -0.198751
vn -0.592033 0.781022 -0.198751
vn -0.592033 0.781021 -0.198751
vn -0.592039 0.781016 0.198754
vn -0.592039 0.781016 0.198754
vn -0.592039 0.781016 0.198754
vn -0.355119 0.934821 0.000000
vn -0.355119 0.934821 0.000000
vn -0.355119 0.934821 0.000000
vn 0.000000 -0.031732 0.999496
vn 0.000000 -0.031732 0.999496
vn 0.000000 -0.031732 0.999496
vn -0.655515 0.133475 -0.743293
vn -0.655515 0.133475 -0.743293
vn -0.655515 0.133475 -0.743293
vn 0.955459 0.053189 0.290291
vn 0.955459 0.053189 0.290291
vn 0.955459 0.053189 0.290291
vn 0.000000 -0.492412 0.870362
vn 0.000000 -0.492412 0.870362
vn 0.000000 -0.492412 0.870362
vn -0.284302 -0.707413 -0.647100
vn -0.284302 -0.707413 -0.647100
vn -0.284302 -0.707413 -0.647100
vn 0.000000 0.091784 -0.995779
vn 0.000000 0.091784 -0.995779
vn 0.000000 0.091784 -0.995779
vn 0.000000 0.573724 0.819049
vn 0.000000 0.573724 0.819049
vn 0.000000 0.573724 0.819049
vn 0.000000 0.990658 0.136372
vn 0.000000 0.990658 0.136373
vn 0.000000 0.990658 0.136373
vn 0.000000 -0.252588 -0.967574
vn 0.000000 -0.252588 -0.967574
vn 0.000000 -0.252588 -0.967574
vn 0.000000 -0.997900 -0.064778
vn 0.000000 -0.997900 -0.064778
vn 0.000000 -0.997900 -0.064778
vn -0.875100 -0.482926 -0.031349
vn -0.875100 -0.482926 -0.031349
vn -0.875100 -0.482926 -0.031349
vn 0.874306 0.480840 0.066192
vn 0.874306 0.480840 0.066192
vn 0.874306 0.480840 0.066192
vn -0.990035 -0.132408 0.047939
vn -0.990035 -0.132408 0.047939
vn -0.990035 -0.132408 0.047939
vn 0.875100 -0.482925 -0.031349
vn 0.875100 -0.482925 -0.031349
vn 0.875100 -0.482925 -0.031349
vn 0.000000 0.188127 0.982145
vn 0.000000 0.188127 0.982145
vn 0.000000 0.188127 0.982145
vn 0.000000 0.477340 -0.878719
vn 0.000000 0.477340 -0.878719
vn 0.000000 0.477340 -0.878719
vn 0.990036 -0.132402 0.047940
vn 0.990036 -0.132402 0.047940
vn 0.990036 -0.132402 0.047940
vn -0.874302 0.480848 0.066193
vn -0.874302 0.480848 0.066193
vn -0.874302 0.480848 0.066193
vn -0.322329 -0.183963 -0.928580
vn -0.322329 -0.183963 -0.928580
vn -0.322329 -0.183963 -0.928580
vn -0.368547 0.286583 -0.884332
vn -0.368547 0.286583 -0.884332
vn -0.368547 0.286583 -0.884332
vn -0.341175 0.774921 -0.532068
vn -0.341175 0.774921 -0.532068
vn -0.341175 0.774921 -0.532068
vn -0.423209 0.068161 0.903465
vn -0.423209 0.068161 0.903465
vn -0.423209 0.068161 0.903465
vn -0.361518 -0.814074 0.454519
vn -0.361518 -0.814074 0.454519
vn -0.361518 -0.814074 0.454519
vn 0.227057 -0.973661 -0.020707
vn 0.227057 -0.973661 -0.020707
vn 0.227057 -0.973661 -0.020707
vn 0.287742 -0.708947 -0.643893
vn 0.287742 -0.708947 -0.643893
vn 0.287742 -0.708947 -0.643893
vn 0.000000 -0.737862 -0.674952
vn 0.000000 -0.737862 -0.674952
vn 0.000000 -0.737862 -0.674952
vn 0.322325 -0.183963 -0.928582
vn 0.322325 -0.183963 -0.928582
vn 0.322325 -0.183963 -0.928582
vn 0.077114 0.058487 0.995305
vn 0.077114 0.058487 0.995305
vn 0.077114 0.058487 0.995305
vn 0.338352 0.327936 -0.882030
vn 0.338352 0.327936 -0.882030
vn 0.338352 0.327936 -0.882030
vn 0.000000 0.308284 -0.951294
vn 0.000000 0.308284 -0.951294
vn 0.000000 0.308284 -0.951294
vn 0.350458 0.779298 -0.519495
vn 0.350458 0.779298 -0.519495
vn 0.350458 0.779298 -0.519495
vn 0.000000 0.824385 -0.566030
vn 0.000000 0.824385 -0.566030
vn 0.000000 0.824385 -0.566030
vn 0.417183 0.060945 0.906777
vn 0.417183 0.060945 0.906777
vn 0.417183 0.060945 0.906777
vn 0.000000 0.075230 0.997166
vn 0.000000 0.075230 0.997166
vn 0.000000 0.075230 0.997166
vn 0.347572 -0.808316 0.475205
vn 0.347572 -0.808316 0.475205
vn 0.347572 -0.808316 0.475205
vn 0.000000 -0.873128 0.487490
vn 0.000000 -0.873128 0.487490
vn 0.000000 -0.873128 0.487490
vn -0.227058 -0.973661 -0.020706
vn -0.227058 -0.973661 -0.020706
vn -0.227058 -0.973661 -0.020706
vn 0.000000 -0.999774 -0.021262
vn 0.000000 -0.999774 -0.021262
vn 0.000000 -0.999774 -0.021262
vn 0.000000 -0.466684 0.884424
vn 0.000000 -0.466684 0.884424
vn 0.000000 -0.466684 0.884424
vn -0.077115 0.058486 0.995305
vn -0.077115 0.058486 0.995305
vn -0.077115 0.058486 0.995305
vn -0.143413 0.920471 0.363548
vn -0.143413 0.920471 0.363548
vn -0.143413 0.920471 0.363547
vn 0.143411 0.920471 0.363548
vn 0.143411 0.920471 0.363548
vn 0.143411 0.920471 0.363548
vn 0.000000 0.927927 0.372763
vn 0.000000 0.927927 0.372763
vn 0.000000 0.927927 0.372763
vn -0.954315 -0.072229 0.289943
vn -0.954315 -0.072229 0.289943
vn -0.954315 -0.072229 0.289943
vn 0.999770 0.021258 0.002926
vn 0.999770 0.021258 0.002926
vn 0.999770 0.021258 0.002926
vn 0.779060 -0.580551 -0.236697
vn 0.779060 -0.580551 -0.236697
vn 0.779060 -0.580551 -0.236697
vn 0.779061 -0.580550 0.236697
vn 0.779061 -0.580550 0.236697
vn 0.779061 -0.580550 0.236697
vn 0.000000 1.000000 0.000000
vn 0.000000 1.000000 0.000000
vn 0.000000 1.000000 0.000000
vn -0.229973 0.006494 0.973175
vn -0.229973 0.006494 0.973175
vn -0.229973 0.006494 0.973175
vn 0.000000 0.105174 -0.994454
vn 0.000000 0.105174 -0.994454
vn 0.000000 0.105174 -0.994454
vn 0.000000 0.969112 0.246622
vn 0.000000 0.969112 0.246622
vn 0.000000 0.969112 0.246622
vn 0.000000 0.969112 0.246622
vn 0.000000 0.969113 -0.246616
vn 0.000000 0.969113 -0.246616
vn 0.000000 0.969113 -0.246616
vn 0.000000 0.969113 -0.246616
f 3/1/1 7/2/2 17/3/3
f 33/4/4 6/5/5 5/6/6
f 19/7/7 20/8/8 16/9/9
f 4/10/10 13/11/11 14/12/12
f 3/13/13 9/14/14 10/15/15
f 15/16/16 16/9/17 11/17/18
f 8/18/19 12/19/20 11/20/21
f 14/12/22 15/21/23 12/19/24
f 18/22/25 20/8/26 9/23/27
f 17/3/28 19/24/29 15/21/30
f 11/17/31 16/9/32 13/25/33
f 17/3/34 38/26/35 37/27/36
f 10/28/37 9/23/38 20/8/39
f 16/9/40 20/8/41 18/22/42
f 10/29/43 19/24/44 17/3/45
f 36/30/46 5/6/47 22/31/48
f 38/32/49 22/31/50 24/33/51
f 24/33/52 26/34/53 42/35/54
f 44/36/55 28/37/56 30/38/57
f 30/38/58 32/39/59 48/40/60
f 34/41/61 2/42/62 31/43/63
f 34/41/64 35/44/65 1/45/66
f 34/41/67 33/46/68 36/47/69
f 35/44/70 37/27/71 21/48/72
f 37/27/73 35/44/74 13/11/75
f 37/27/76 39/49/77 23/50/78
f 38/26/79 40/51/80 39/49/81
f 23/50/82 39/49/83 41/52/84
f 40/51/85 42/53/86 41/52/87
f 43/54/88 45/55/89 29/56/90
f 43/57/91 44/36/92 46/58/93
f 29/56/94 45/55/95 47/59/96
f 46/58/97 48/40/98 47/60/99
f 33/4/100 48/40/101 32/39/102
f 34/41/103 47/59/104 48/61/105
f 5/6/106 26/34/107 22/31/108
f 24/33/109 22/31/110 26/34/111
f 6/5/112 32/39/113 5/6/114
f 30/38/115 28/37/116 32/39/117
f 28/37/118 26/34/119 32/39/120
f 25/62/121 31/43/122 23/50/123
f 23/50/124 31/43/125 21/48/126
f 35/44/127 36/47/128 14/12/129
f 14/12/130 36/47/131 38/26/132
f 28/37/133 44/36/134 42/35/135
f 41/52/136 43/54/137 27/63/138
f 44/36/139 43/57/140 41/64/141
f 5/6/142 32/39/143 26/34/144
f 31/43/145 2/42/146 21/48/147
f 1/45/148 21/48/149 2/42/150
f 31/43/151 25/62/152 27/63/153
f 29/56/154 31/43/155 27/63/156
f 3/67/157 59/68/158 60/69/159
f 9/70/160 53/71/161 54/72/162
f 10/73/163 51/74/164 52/75/165
f 10/73/166 7/76/167 50/77/168
f 9/70/169 54/72/170 55/78/171
f 9/70/172 56/79/173 57/80/174
f 9/70/175 55/78/176 56/79/177
f 3/67/178 58/81/179 59/68/180
f 7/76/181 49/82/182 50/77/183
f 66/65/184 63/83/185 55/84/186
f 55/84/187 63/83/188 56/85/189
f 56/85/190 63/83/191 62/86/192
f 62/86/193 61/87/194 58/88/195
f 54/90/196 66/65/197 55/84/198
f 53/91/199 66/65/200 54/90/201
f 51/92/202 50/93/203 52/94/204
f 52/95/205 50/96/206 49/97/207
f 58/88/208 61/87/209 59/98/210
f 61/87/211 64/89/212 59/98/213
f 59/98/214 64/89/215 60/99/216
f 60/99/217 64/89/218 49/100/219
f 64/89/220 65/66/221 49/100/222
f 66/65/223 53/91/224 65/66/225
f 53/91/226 49/100/227 65/66/228
f 7/76/229 3/101/230 60/102/231
f 10/73/232 52/75/233 53/103/234
f 3/67/235 57/80/236 58/81/237
f 18/104/238 3/1/239 17/3/240
f 36/30/241 33/4/242 5/6/243
f 15/16/244 19/7/245 16/9/246
f 8/18/247 4/10/248 14/12/249
f 7/105/250 3/13/251 10/15/252
f 12/106/253 15/16/254 11/17/255
f 4/10/256 8/18/257 11/20/258
f 8/18/259 14/12/260 12/19/261
f 3/107/262 18/22/263 9/23/264
f 14/12/265 17/3/266 15/21/267
f 4/108/268 11/17/269 13/25/270
f 18/104/271 17/3/272 37/27/273
f 19/7/274 10/28/275 20/8/276
f 13/25/277 16/9/278 18/22/279
f 7/2/280 10/29/281 17/3/282
f 38/32/283 36/30/284 22/31/285
f 40/51/286 38/26/287 24/109/288
f 40/51/289 24/109/290 42/53/291
f 46/58/292 44/36/293 30/38/294
f 46/58/295 30/38/296 48/40/297
f 47/59/298 34/41/299 31/43/300
f 2/42/301 34/41/302 1/45/303
f 35/44/304 34/41/305 36/47/306
f 1/45/307 35/44/308 21/48/309
f 18/104/310 37/27/311 13/11/312
f 21/48/313 37/27/314 23/50/315
f 37/27/316 38/26/317 39/49/318
f 25/62/319 23/50/320 41/52/321
f 39/49/322 40/51/323 41/52/324
f 27/63/325 43/54/326 29/56/327
f 45/110/328 43/57/329 46/58/330
f 31/43/331 29/56/332 47/59/333
f 45/110/334 46/58/335 47/60/336
f 6/5/337 33/4/338 32/39/339
f 33/46/340 34/41/341 48/61/342
f 13/11/343 35/44/344 14/12/345
f 17/3/346 14/12/347 38/26/348
f 26/34/349 28/37/350 42/35/351
f 25/62/352 41/52/353 27/63/354
f 42/35/355 44/36/356 41/64/357
f 51/74/358 10/73/359 50/77/360
f 3/67/361 9/70/362 57/80/363
f 57/111/364 56/85/365 62/86/366
f 57/111/367 62/86/368 58/88/369
f 53/112/370 52/113/371 49/114/372
f 49/82/373 7/76/374 60/102/375
f 9/70/376 10/115/377 53/71/378
f 66/65/379 65/66/380 62/86/381 63/83/382
f 65/66/383 64/89/384 61/87/385 62/86/386
